# xmcd CD database file
#
# Track frame offsets:
#	150
#	15774
#	44610
#	58571
#	72232
#	84829
#	104668
#	117211
#	124453
#	139583
#	155307
#	173506
#	194404
#
# Disc length: 2893 seconds
#
# Revision: 0
# Processed by: cddbd v1.5PL3 Copyright (c) Steve Scherf et al.
# Submitted via: CDex 1.51
#
DISCID=a70b4b0d
DTITLE=Reza Manzoori - ReStrung v2
DYEAR=2004
DGENRE=New Age
TTITLE0=Union
TTITLE1=Arrival
TTITLE2=Origins
TTITLE3=Dolphins
TTITLE4=World outside
TTITLE5=Insignia
TTITLE6=Wave
TTITLE7=Valley
TTITLE8=Along the way
TTITLE9=Breath
TTITLE10=Rain
TTITLE11=Summer Night
TTITLE12=Maryam
EXTD=YEAR: 2004
EXTT0=
EXTT1=
EXTT2=
EXTT3=
EXTT4=
EXTT5=
EXTT6=
EXTT7=
EXTT8=
EXTT9=
EXTT10=
EXTT11=
EXTT12=
PLAYORDER=
